# xmcd CD database file
#
# Track frame offsets:
#	150
#	1807
#	44187
#	96645
#	141482
#	179010
#
# Disc length: 2611 seconds
#
# Revision: 0
# Processed by: cddbd v1.5.2PL0 Copyright (c) Steve Scherf et al.
# Submitted via: CDex 1.70beta3
#
DISCID=5b0a3106
DTITLE=Kenny Burrell - On View At The Five Spot Cafe
DYEAR=1959
DGENRE=Jazz
TTITLE0=Introduction By Kenny Burrell
TTITLE1=Birk's Works
TTITLE2=Hallelujah
TTITLE3=Lady Be Good
TTITLE4=Lover Man
TTITLE5=36-23-36
EXTD=YEAR: 1959
EXTT0=
EXTT1=
EXTT2=
EXTT3=
EXTT4=
EXTT5=
PLAYORDER=
